<?xml version="1.0" encoding="utf-8" standalone="no"?>
<!DOCTYPE svg PUBLIC "-//W3C//DTD SVG 1.1//EN"
  "http://www.w3.org/Graphics/SVG/1.1/DTD/svg11.dtd">
<svg xmlns:xlink="http://www.w3.org/1999/xlink" width="922.987152pt" height="186.250752pt" viewBox="0 0 922.987152 186.250752" xmlns="http://www.w3.org/2000/svg" version="1.1">
 <metadata>
  <rdf:RDF xmlns:dc="http://purl.org/dc/elements/1.1/" xmlns:cc="http://creativecommons.org/ns#" xmlns:rdf="http://www.w3.org/1999/02/22-rdf-syntax-ns#">
   <cc:Work>
    <dc:type rdf:resource="http://purl.org/dc/dcmitype/StillImage"/>
    <dc:date>2026-05-23T12:29:28.748248</dc:date>
    <dc:format>image/svg+xml</dc:format>
    <dc:creator>
     <cc:Agent>
      <dc:title>Matplotlib v3.10.8, https://matplotlib.org/</dc:title>
     </cc:Agent>
    </dc:creator>
   </cc:Work>
  </rdf:RDF>
 </metadata>
 <defs>
  <style type="text/css">*{stroke-linejoin: round; stroke-linecap: butt}</style>
 </defs>
 <g id="figure_1">
  <g id="patch_1">
   <path d="M 0 186.250752 
L 922.987152 186.250752 
L 922.987152 0 
L 0 0 
L 0 186.250752 
z
" style="fill: none"/>
  </g>
  <g id="axes_1">
   <g id="patch_2">
    <path d="M 116.208576 155.981376 
L 70.675776 97.747776 
L 55.008576 109.728576 
L 55.008576 155.981376 
L 28.454976 155.981376 
L 28.454976 29.174976 
L 55.008576 29.174976 
L 55.008576 86.688576 
L 112.147776 29.174976 
L 143.107776 29.174976 
L 88.934976 82.800576 
L 147.542976 155.981376 
L 116.208576 155.981376 
z
M 161.564976 155.981376 
L 161.564976 29.174976 
L 261.299376 29.174976 
L 261.299376 49.680576 
L 188.118576 49.680576 
L 188.118576 81.562176 
L 255.798576 81.562176 
L 255.798576 102.067776 
L 188.118576 102.067776 
L 188.118576 135.446976 
L 264.985776 135.446976 
L 264.985776 155.981376 
L 161.564976 155.981376 
z
M 361.717776 155.981376 
L 306.479376 58.320576 
Q 308.092176 72.547776 308.092176 81.187776 
L 308.092176 155.981376 
L 284.504976 155.981376 
L 284.504976 29.174976 
L 314.831376 29.174976 
L 370.904976 127.642176 
Q 369.292176 114.048576 369.292176 102.874176 
L 369.292176 29.174976 
L 392.879376 29.174976 
L 392.879376 155.981376 
L 361.717776 155.981376 
z
M 413.381376 121.334976 
Q 413.381376 109.181376 420.667776 99.706176 
Q 427.982976 90.202176 443.822976 82.800576 
Q 437.141376 69.322176 437.141376 57.686976 
Q 437.141376 43.661376 445.954176 36.058176 
Q 454.795776 28.454976 471.067776 28.454976 
Q 486.187776 28.454976 494.971776 35.654976 
Q 503.755776 42.854976 503.755776 55.181376 
Q 503.755776 62.122176 500.242176 67.709376 
Q 496.728576 73.267776 490.277376 78.048576 
Q 483.854976 82.800576 468.475776 90.000576 
Q 477.374976 105.754176 490.421376 120.240576 
Q 499.781376 106.042176 504.648576 87.581376 
L 523.454976 93.888576 
Q 517.349376 114.854976 506.088576 131.674176 
Q 513.835776 138.240576 522.101376 138.240576 
Q 527.947776 138.240576 532.642176 136.800576 
L 532.642176 155.088576 
Q 527.688576 157.075776 520.862976 157.075776 
Q 513.115776 157.075776 505.310976 154.282176 
Q 497.534976 151.488576 491.141376 146.160576 
Q 475.848576 157.795776 457.042176 157.795776 
Q 436.248576 157.795776 424.814976 148.205376 
Q 413.381376 138.614976 413.381376 121.334976 
z
M 483.595776 55.354176 
Q 483.595776 50.227776 480.168576 47.002176 
Q 476.741376 43.747776 470.894976 43.747776 
Q 463.982976 43.747776 460.325376 47.635776 
Q 456.667776 51.494976 456.667776 57.888576 
Q 456.667776 65.722176 461.534976 75.254976 
Q 470.981376 71.194176 475.070976 68.400576 
Q 479.189376 65.606976 481.378176 62.467776 
Q 483.595776 59.328576 483.595776 55.354176 
z
M 476.222976 133.834176 
Q 461.275776 117.187776 451.742976 99.907776 
Q 436.248576 107.194176 436.248576 120.960576 
Q 436.248576 129.888576 442.094976 135.302976 
Q 447.941376 140.688576 458.021376 140.688576 
Q 463.867776 140.688576 468.590976 138.528576 
Q 473.342976 136.368576 476.222976 133.834176 
z
M 663.131376 119.808576 
Q 663.131376 137.088576 650.171376 146.534976 
Q 637.211376 155.981376 614.171376 155.981376 
L 550.724976 155.981376 
L 550.724976 29.174976 
L 608.785776 29.174976 
Q 631.998576 29.174976 643.921776 37.238976 
Q 655.844976 45.274176 655.844976 61.027776 
Q 655.844976 71.827776 649.854576 79.258176 
Q 643.892976 86.688576 631.652976 89.280576 
Q 647.032176 91.094976 655.067376 98.986176 
Q 663.131376 106.848576 663.131376 119.808576 
z
M 629.118576 64.627776 
Q 629.118576 56.074176 623.675376 52.474176 
Q 618.232176 48.874176 607.518576 48.874176 
L 577.278576 48.874176 
L 577.278576 80.294976 
L 607.691376 80.294976 
Q 618.952176 80.294976 624.020976 76.378176 
Q 629.118576 72.461376 629.118576 64.627776 
z
M 636.491376 117.734976 
Q 636.491376 99.907776 610.945776 99.907776 
L 577.278576 99.907776 
L 577.278576 136.282176 
L 611.924976 136.282176 
Q 624.712176 136.282176 630.587376 131.645376 
Q 636.491376 127.008576 636.491376 117.734976 
z
M 773.489376 155.981376 
L 762.228576 123.581376 
L 713.902176 123.581376 
L 702.641376 155.981376 
L 676.087776 155.981376 
L 722.369376 29.174976 
L 753.674976 29.174976 
L 799.754976 155.981376 
L 773.489376 155.981376 
z
M 738.007776 48.701376 
L 737.489376 50.688576 
Q 736.567776 53.914176 735.300576 58.061376 
Q 734.062176 62.208576 719.834976 103.594176 
L 756.295776 103.594176 
L 743.767776 67.162176 
L 739.908576 54.922176 
L 738.007776 48.701376 
z
M 851.792976 157.795776 
Q 832.064976 157.795776 821.495376 149.242176 
Q 810.925776 140.688576 807.412176 121.594176 
L 833.792976 117.734976 
Q 835.405776 127.526976 839.812176 132.278976 
Q 844.218576 137.002176 851.965776 137.002176 
Q 859.885776 137.002176 863.975376 131.702976 
Q 868.064976 126.374976 868.064976 116.467776 
L 868.064976 49.968576 
L 842.778576 49.968576 
L 842.778576 29.174976 
L 894.532176 29.174976 
L 894.532176 115.834176 
Q 894.532176 135.648576 883.271376 146.736576 
Q 872.039376 157.795776 851.792976 157.795776 
z
" clip-path="url(#pda28858766)" style="fill: #f5f2ec"/>
   </g>
  </g>
 </g>
 <defs>
  <clipPath id="pda28858766">
   <rect x="0" y="0" width="922.987152" height="186.250752"/>
  </clipPath>
 </defs>
</svg>
